<svg xmlns="http://www.w3.org/2000/svg" viewBox="0 0 55 38"><g id="fog" viewBox="0 0 55 55">
      <path d="M36.463 47.464a2.013 2.013 0 1 1 0 4.025h-15.06a2.013 2.013 0 0 1 0-4.025zm-12.141-6.892a2.013 2.013 0 0 1 0 4.026H7.37a2.013 2.013 0 0 1-.001-4.026zm21.584 0a2.013 2.013 0 0 1 0 4.026H31.16a2.013 2.013 0 0 1 0-4.026zm2.021-11.05a2.013 2.013 0 1 1 0 4.026H37.05a2.08 2.08 0 0 0-2.08 2.081 2.08 2.08 0 0 1-2.08 2.08h-21.43a2.013 2.013 0 1 1 0-4.025h18.675a2.08 2.08 0 0 0 2.07-1.868l.021-.426a2.08 2.08 0 0 1 2.07-1.867zm-36.642-6.888a2.08 2.08 0 0 1 2.068 1.866l.021.426a2.08 2.08 0 0 0 2.069 1.866h11.96a2.013 2.013 0 0 1 0 4.026H12.69a2.08 2.08 0 0 1-2.08-2.08 2.08 2.08 0 0 0-2.08-2.079H3.769a2.013 2.013 0 0 1 0-4.025zm39.947.014a2.013 2.013 0 0 1 0 4.026H36.545a2.013 2.013 0 0 1 0-4.026zm-21.498-2.754a2.013 2.013 0 1 1 0 4.025h-6.241a2.013 2.013 0 1 1 0-4.025z" fill="url(#a)" fill-opacity=".25" />
      <defs>
        <linearGradient id="a" x1="34.597" y1="54.569" x2="34.597" y2="14.775" gradientUnits="userSpaceOnUse">
          <stop stop-color="#338fcc" />
          <stop offset="1" stop-color="#ddd" />
        </linearGradient>
      </defs>
    </g>
  </svg>