<svg xmlns="http://www.w3.org/2000/svg" viewBox="0 0 55 38"><g id="r2" viewBox="0 0 55 17">
      <path fill-rule="evenodd" clip-rule="evenodd" d="M21.815 5.083c-.205 1.081-1.553 2.438-2.853 1.712-1.3-.725-1.127-2.238-.393-3.27S22 1 22 1s.02 3.002-.185 4.083ZM34.815 5.083c-.205 1.081-1.553 2.438-2.853 1.712-1.3-.725-1.127-2.238-.393-3.27S35 1 35 1s.02 3.002-.185 4.083ZM16.815 13.083c-.205 1.081-1.553 2.438-2.853 1.713-1.3-.726-1.127-2.24-.393-3.271C14.303 10.493 17 9 17 9s.02 3.002-.185 4.083ZM29.815 13.083c-.205 1.081-1.553 2.438-2.853 1.713-1.3-.726-1.127-2.24-.393-3.271C27.303 10.493 30 9 30 9s.02 3.002-.185 4.083Z" fill="#0AF" />
    </g>
    </svg>