<svg xmlns="http://www.w3.org/2000/svg" viewBox="0 0 55 38"><g id="r2_st" viewBox="0 0 55 17">
      <path fill-rule="evenodd" clip-rule="evenodd" d="M16.815 5.083c-.205 1.081-1.553 2.438-2.853 1.712-1.3-.725-1.127-2.238-.393-3.27S17 1 17 1s.02 3.002-.185 4.083ZM39.815 5.083c-.205 1.081-1.553 2.438-2.853 1.712-1.3-.725-1.127-2.238-.393-3.27S40 1 40 1s.02 3.002-.185 4.083ZM32.815 13.083c-.205 1.081-1.553 2.438-2.853 1.713-1.3-.726-1.127-2.24-.393-3.271C30.303 10.493 33 9 33 9s.02 3.002-.185 4.083ZM18.815 13.083c-.205 1.081-1.553 2.438-2.853 1.713-1.3-.726-1.127-2.24-.393-3.271C16.303 10.493 19 9 19 9s.02 3.002-.185 4.083Z" fill="#0AF" />
      <path fill-rule="evenodd" clip-rule="evenodd" d="m30 4-2.7.037L29.6 0H26l-3 6h2.696L22 15l8-11Z" fill="#F60" />
    </g>
    </svg>