<svg xmlns="http://www.w3.org/2000/svg" viewBox="0 0 55 38"><g id="r3" viewBox="0 0 55 17">
      <path fill-rule="evenodd" clip-rule="evenodd" d="M18.815 5.083c-.205 1.081-1.553 2.438-2.853 1.712-1.3-.725-1.127-2.238-.393-3.27S19 1 19 1s.02 3.002-.185 4.083ZM13.815 13.083c-.205 1.081-1.553 2.438-2.853 1.713-1.3-.726-1.127-2.24-.393-3.271C11.303 10.493 14 9 14 9s.02 3.002-.185 4.083ZM27.815 5.083c-.205 1.081-1.553 2.438-2.853 1.712-1.3-.725-1.127-2.238-.393-3.27S28 1 28 1s.02 3.002-.185 4.083ZM22.815 13.083c-.205 1.081-1.553 2.438-2.853 1.713-1.3-.726-1.127-2.24-.393-3.271C20.303 10.493 23 9 23 9s.02 3.002-.185 4.083ZM36.815 5.083c-.205 1.081-1.553 2.438-2.853 1.712-1.3-.725-1.127-2.238-.393-3.27S37 1 37 1s.02 3.002-.185 4.083ZM31.815 13.083c-.205 1.081-1.553 2.438-2.853 1.713-1.3-.726-1.127-2.24-.393-3.271C29.303 10.493 32 9 32 9s.02 3.002-.185 4.083Z" fill="#0AF" />
    </g>
    </svg>