<svg xmlns="http://www.w3.org/2000/svg" viewBox="0 0 55 38"><g id="r4" viewBox="0 0 55 17">
      <path fill-rule="evenodd" clip-rule="evenodd" d="M21.815 5.083c-.205 1.081-1.553 2.438-2.853 1.712-1.3-.725-1.127-2.238-.393-3.27S22 1 22 1s.02 3.002-.185 4.083ZM11.815 13.083c-.205 1.081-1.553 2.438-2.853 1.713-1.3-.726-1.127-2.24-.393-3.271C9.303 10.493 12 9 12 9s.02 3.002-.185 4.083ZM34.815 5.083c-.205 1.081-1.553 2.438-2.853 1.712-1.3-.725-1.127-2.238-.393-3.27S35 1 35 1s.02 3.002-.185 4.083ZM24.815 13.083c-.205 1.081-1.553 2.438-2.853 1.713-1.3-.726-1.127-2.24-.393-3.271C22.303 10.493 25 9 25 9s.02 3.002-.185 4.083ZM37.815 13.083c-.205 1.081-1.553 2.438-2.853 1.713-1.3-.726-1.127-2.24-.393-3.271C35.303 10.493 38 9 38 9s.02 3.002-.185 4.083ZM31.012 12.512c-.155.811-1.166 1.829-2.14 1.285-.976-.545-.846-1.68-.296-2.454.551-.773 2.574-1.893 2.574-1.893s.016 2.252-.138 3.063ZM18.012 12.512c-.155.811-1.166 1.829-2.14 1.285-.976-.545-.846-1.68-.296-2.454.551-.773 2.574-1.893 2.574-1.893s.016 2.252-.138 3.063ZM15.011 4.512c-.154.811-1.164 1.829-2.14 1.285-.975-.545-.845-1.68-.295-2.454.551-.773 2.574-1.893 2.574-1.893s.016 2.252-.139 3.062ZM28.012 4.512c-.155.811-1.166 1.829-2.14 1.285-.976-.545-.846-1.68-.296-2.454.551-.773 2.574-1.893 2.574-1.893s.016 2.252-.138 3.062ZM41.011 4.512c-.154.811-1.165 1.829-2.14 1.285-.975-.545-.845-1.68-.294-2.454.55-.773 2.573-1.893 2.573-1.893s.016 2.252-.139 3.062Z" fill="#0AF" />
    </g>
    </svg>