<svg xmlns="http://www.w3.org/2000/svg" viewBox="0 0 55 38"><g id="r4_st" viewBox="0 0 55 17">
      <path fill-rule="evenodd" clip-rule="evenodd" d="M15.815 5.083c-.205 1.081-1.553 2.438-2.853 1.712-1.3-.725-1.127-2.238-.393-3.27S16 1 16 1s.02 3.002-.185 4.083ZM7.815 13.083c-.205 1.081-1.553 2.438-2.853 1.713-1.3-.726-1.127-2.24-.393-3.271C5.303 10.493 8 9 8 9s.02 3.002-.185 4.083ZM18.815 13.083c-.205 1.081-1.553 2.438-2.853 1.713-1.3-.726-1.127-2.24-.393-3.271C16.303 10.493 19 9 19 9s.02 3.002-.185 4.083ZM32.815 13.083c-.205 1.081-1.553 2.438-2.853 1.713-1.3-.726-1.127-2.24-.393-3.271C30.303 10.493 33 9 33 9s.02 3.002-.185 4.083ZM43.815 13.083c-.205 1.081-1.553 2.438-2.853 1.713-1.3-.726-1.127-2.24-.393-3.271C41.303 10.493 44 9 44 9s.02 3.002-.185 4.083ZM40.815 5.083c-.205 1.081-1.553 2.438-2.853 1.712-1.3-.725-1.127-2.238-.393-3.27S41 1 41 1s.02 3.002-.185 4.083ZM35.012 4.512c-.155.811-1.165 1.829-2.14 1.285-.976-.545-.846-1.68-.295-2.454.55-.773 2.573-1.893 2.573-1.893s.016 2.252-.138 3.062ZM38.012 12.512c-.155.811-1.165 1.829-2.14 1.285-.976-.545-.846-1.68-.295-2.454.55-.773 2.573-1.893 2.573-1.893s.016 2.252-.138 3.063ZM21.012 4.512c-.155.811-1.165 1.829-2.14 1.285-.976-.545-.846-1.68-.295-2.454.55-.773 2.573-1.893 2.573-1.893s.016 2.252-.138 3.062ZM13.012 12.512c-.155.811-1.165 1.829-2.14 1.285-.976-.545-.846-1.68-.295-2.454.55-.773 2.573-1.893 2.573-1.893s.016 2.252-.138 3.063Z" fill="#0AF" />
      <path fill-rule="evenodd" clip-rule="evenodd" d="m30 4-2.7.037L29.6 0H26l-3 6h2.696L22 15l8-11Z" fill="#F60" />
    </g>
    </svg>