<svg xmlns="http://www.w3.org/2000/svg" viewBox="0 0 55 38"><g id="rs4" viewBox="0 0 55 17">
      <path fill-rule="evenodd" clip-rule="evenodd" d="m12.762 4.445-1.39-.806a.473.473 0 0 1-.214-.555.305.305 0 0 1 .442-.171l1.505.888-.023-1.762a.272.272 0 0 1 .359-.258l.02.007a.509.509 0 0 1 .345.48l.007 1.57 1.346-.778a.342.342 0 0 1 .47.12.342.342 0 0 1-.131.467l-1.342.774 1.352.798a.5.5 0 0 1 .233.545.274.274 0 0 1-.4.176l-1.523-.883.008 1.778a.27.27 0 0 1-.339.26.46.46 0 0 1-.344-.439l-.022-1.637-1.354.781a.342.342 0 0 1-.469-.12.342.342 0 0 1 .131-.466l1.333-.77ZM25.762 4.445l-1.39-.806a.473.473 0 0 1-.214-.555.305.305 0 0 1 .442-.171l1.505.888-.023-1.762a.272.272 0 0 1 .359-.258l.02.007a.509.509 0 0 1 .345.48l.007 1.57 1.346-.778a.342.342 0 0 1 .47.12.342.342 0 0 1-.131.467l-1.342.774 1.352.798a.5.5 0 0 1 .233.545.274.274 0 0 1-.4.176l-1.523-.883.008 1.778a.27.27 0 0 1-.339.26.46.46 0 0 1-.344-.439l-.022-1.637-1.354.781a.342.342 0 0 1-.469-.12.342.342 0 0 1 .131-.466l1.333-.77ZM38.762 4.445l-1.39-.806a.473.473 0 0 1-.214-.555.305.305 0 0 1 .442-.171l1.505.888-.023-1.762a.272.272 0 0 1 .359-.258l.02.007a.509.509 0 0 1 .345.48l.007 1.57 1.346-.778a.342.342 0 0 1 .47.12.342.342 0 0 1-.131.467l-1.342.774 1.352.798a.5.5 0 0 1 .233.545.274.274 0 0 1-.4.176l-1.523-.883.008 1.778a.27.27 0 0 1-.339.26.46.46 0 0 1-.344-.439l-.022-1.637-1.354.781a.342.342 0 0 1-.469-.12.342.342 0 0 1 .131-.466l1.333-.77ZM15.762 12.445l-1.39-.806a.473.473 0 0 1-.214-.554.305.305 0 0 1 .442-.172l1.505.888-.023-1.762a.272.272 0 0 1 .359-.258l.02.007a.509.509 0 0 1 .345.48l.007 1.57 1.346-.778a.342.342 0 0 1 .47.12.342.342 0 0 1-.131.467l-1.342.774 1.352.798a.5.5 0 0 1 .233.545.274.274 0 0 1-.4.176l-1.523-.883.008 1.778a.27.27 0 0 1-.339.26.46.46 0 0 1-.344-.439l-.022-1.637-1.354.781a.342.342 0 0 1-.469-.12.342.342 0 0 1 .131-.466l1.333-.77ZM28.762 12.445l-1.39-.806a.473.473 0 0 1-.214-.554.305.305 0 0 1 .442-.172l1.505.888-.023-1.762a.272.272 0 0 1 .359-.258l.02.007a.509.509 0 0 1 .345.48l.007 1.57 1.346-.778a.342.342 0 0 1 .47.12.342.342 0 0 1-.131.467l-1.342.774 1.352.798a.5.5 0 0 1 .233.545.274.274 0 0 1-.4.176l-1.523-.883.008 1.778a.27.27 0 0 1-.339.26.46.46 0 0 1-.344-.439l-.022-1.637-1.354.781a.342.342 0 0 1-.469-.12.342.342 0 0 1 .131-.466l1.333-.77ZM21.815 5.083c-.205 1.081-1.553 2.438-2.853 1.712-1.3-.725-1.127-2.238-.393-3.27S22 1 22 1s.02 3.002-.185 4.083ZM11.815 13.083c-.205 1.081-1.553 2.438-2.853 1.713-1.3-.726-1.127-2.24-.393-3.271C9.303 10.493 12 9 12 9s.02 3.002-.185 4.083ZM34.815 5.083c-.205 1.081-1.553 2.438-2.853 1.712-1.3-.725-1.127-2.238-.393-3.27S35 1 35 1s.02 3.002-.185 4.083ZM24.815 13.083c-.205 1.081-1.553 2.438-2.853 1.713-1.3-.726-1.127-2.24-.393-3.271C22.303 10.493 25 9 25 9s.02 3.002-.185 4.083ZM37.815 13.083c-.205 1.081-1.553 2.438-2.853 1.713-1.3-.726-1.127-2.24-.393-3.271C35.303 10.493 38 9 38 9s.02 3.002-.185 4.083Z" fill="#09F" />
    </g>
    </svg>