<svg xmlns="http://www.w3.org/2000/svg" viewBox="0 0 55 38"><g id="rs4_st" viewBox="0 0 55 17">
      <path fill-rule="evenodd" clip-rule="evenodd" d="m30 4-2.7.037L29.6 0H26l-3 6h2.696L22 15l8-11Z" fill="#F60" />
      <path fill-rule="evenodd" clip-rule="evenodd" d="M19.815 13.083c-.205 1.081-1.553 2.438-2.853 1.713-1.3-.726-1.127-2.24-.393-3.271C17.303 10.493 20 9 20 9s.02 3.002-.185 4.083ZM5.815 13.083c-.205 1.081-1.553 2.438-2.853 1.713-1.3-.726-1.127-2.24-.393-3.271C3.303 10.493 6 9 6 9s.02 3.002-.185 4.083ZM30.815 13.083c-.205 1.081-1.553 2.438-2.853 1.713-1.3-.726-1.127-2.24-.393-3.271C28.303 10.493 31 9 31 9s.02 3.002-.185 4.083ZM44.815 13.083c-.205 1.081-1.553 2.438-2.853 1.713-1.3-.726-1.127-2.24-.393-3.271C42.303 10.493 45 9 45 9s.02 3.002-.185 4.083ZM12.815 5.083c-.205 1.081-1.553 2.438-2.853 1.712-1.3-.725-1.127-2.238-.393-3.27S13 1 13 1s.02 3.002-.185 4.083ZM43.815 5.083c-.205 1.081-1.553 2.438-2.853 1.712-1.3-.725-1.127-2.238-.393-3.27S44 1 44 1s.02 3.002-.185 4.083ZM11.978 12.047l1.658-1.644a.335.335 0 0 0 0-.473l-.048-.047a.333.333 0 0 0-.473-.003l-1.66 1.646-.553-2.271a.336.336 0 0 0-.407-.245l-.065.016a.339.339 0 0 0-.249.405l.569 2.317-2.318-.566a.338.338 0 0 0-.407.247l-.014.064a.332.332 0 0 0 .246.405l2.265.554-1.655 1.642a.34.34 0 0 0-.003.475l.048.048a.336.336 0 0 0 .473.003l1.66-1.65.557 2.275c.043.179.226.29.404.245l.064-.014a.334.334 0 0 0 .248-.405l-.565-2.318 2.316.565a.334.334 0 0 0 .404-.245l.017-.064a.337.337 0 0 0-.245-.406l-2.267-.556ZM36.978 12.047l1.658-1.644a.335.335 0 0 0 0-.473l-.048-.047a.333.333 0 0 0-.473-.003l-1.66 1.646-.553-2.271a.336.336 0 0 0-.407-.245l-.065.016a.339.339 0 0 0-.249.405l.569 2.317-2.318-.566a.339.339 0 0 0-.407.247l-.014.064a.332.332 0 0 0 .246.405l2.265.554-1.655 1.642a.34.34 0 0 0-.003.475l.048.048a.336.336 0 0 0 .473.003l1.66-1.65.557 2.275c.043.179.226.29.404.245l.064-.014a.334.334 0 0 0 .248-.405l-.565-2.318 2.316.565a.334.334 0 0 0 .404-.245l.017-.064a.337.337 0 0 0-.245-.406l-2.267-.556ZM18.978 4.047l1.658-1.644a.335.335 0 0 0 0-.473l-.048-.047a.333.333 0 0 0-.473-.003l-1.66 1.646-.553-2.271a.336.336 0 0 0-.407-.245l-.065.016a.339.339 0 0 0-.249.405l.569 2.317-2.318-.565a.338.338 0 0 0-.407.246l-.014.064a.332.332 0 0 0 .246.405l2.265.554-1.655 1.642a.34.34 0 0 0-.003.475l.048.048a.336.336 0 0 0 .473.003l1.66-1.65.557 2.275c.043.179.226.29.404.245l.064-.014a.334.334 0 0 0 .248-.405l-.565-2.318 2.316.565a.334.334 0 0 0 .404-.245l.017-.064a.337.337 0 0 0-.245-.406l-2.267-.556ZM35.978 4.047l1.658-1.644a.335.335 0 0 0 0-.473l-.048-.047a.333.333 0 0 0-.473-.003l-1.66 1.646-.553-2.271a.336.336 0 0 0-.407-.245l-.065.016a.339.339 0 0 0-.249.405l.569 2.317-2.318-.565a.338.338 0 0 0-.407.246l-.014.064a.332.332 0 0 0 .246.405l2.265.554-1.655 1.642a.34.34 0 0 0-.003.475l.048.048a.336.336 0 0 0 .473.003l1.66-1.65.557 2.275c.043.179.226.29.404.245l.064-.014a.334.334 0 0 0 .248-.405l-.565-2.318 2.316.565a.334.334 0 0 0 .404-.245l.017-.064a.337.337 0 0 0-.245-.406l-2.267-.556Z" fill="#0AF" />
    </g>
    </svg>