<svg xmlns="http://www.w3.org/2000/svg" viewBox="0 0 55 38"><g id="s4" viewBox="0 0 55 17">
      <path fill-rule="evenodd" clip-rule="evenodd" d="m36.978 12.047 1.658-1.644a.335.335 0 0 0 0-.473l-.048-.047a.333.333 0 0 0-.473-.003l-1.66 1.646-.553-2.271a.336.336 0 0 0-.407-.245l-.065.016a.339.339 0 0 0-.249.405l.569 2.317-2.318-.566a.339.339 0 0 0-.407.247l-.014.064a.332.332 0 0 0 .246.405l2.265.554-1.655 1.642a.34.34 0 0 0-.003.475l.048.048a.336.336 0 0 0 .473.003l1.66-1.65.557 2.275c.043.179.226.29.404.245l.064-.014a.334.334 0 0 0 .248-.405l-.565-2.318 2.316.565a.334.334 0 0 0 .404-.245l.017-.064a.337.337 0 0 0-.245-.406l-2.267-.556ZM20.978 4.047l1.658-1.644a.335.335 0 0 0 0-.473l-.048-.047a.333.333 0 0 0-.473-.003l-1.66 1.646-.553-2.271a.336.336 0 0 0-.407-.245l-.065.016a.339.339 0 0 0-.249.405l.569 2.317-2.318-.565a.338.338 0 0 0-.407.246l-.014.064a.332.332 0 0 0 .246.405l2.265.554-1.655 1.642a.34.34 0 0 0-.003.475l.048.048a.336.336 0 0 0 .473.003l1.66-1.65.557 2.275c.043.179.226.29.404.245l.064-.014a.334.334 0 0 0 .248-.405l-.565-2.318 2.316.565a.334.334 0 0 0 .404-.245l.017-.064a.337.337 0 0 0-.245-.406l-2.267-.556ZM23.978 12.047l1.658-1.644a.335.335 0 0 0 0-.473l-.048-.047a.333.333 0 0 0-.473-.003l-1.66 1.646-.553-2.271a.336.336 0 0 0-.407-.245l-.065.016a.339.339 0 0 0-.249.405l.569 2.317-2.318-.566a.339.339 0 0 0-.407.247l-.014.064a.332.332 0 0 0 .246.405l2.265.554-1.655 1.642a.34.34 0 0 0-.003.475l.048.048a.336.336 0 0 0 .473.003l1.66-1.65.557 2.275c.043.179.226.29.404.245l.064-.014a.334.334 0 0 0 .248-.405l-.565-2.318 2.316.565a.334.334 0 0 0 .404-.245l.017-.064a.337.337 0 0 0-.245-.406l-2.267-.556ZM10.978 12.047l1.658-1.644a.335.335 0 0 0 0-.473l-.048-.047a.333.333 0 0 0-.473-.003l-1.66 1.646-.553-2.271a.336.336 0 0 0-.407-.245l-.065.016a.339.339 0 0 0-.249.405l.569 2.317-2.318-.566a.338.338 0 0 0-.407.247l-.014.064a.332.332 0 0 0 .246.405l2.265.554-1.655 1.642a.34.34 0 0 0-.003.475l.048.048a.336.336 0 0 0 .473.003l1.66-1.65.557 2.275c.043.179.226.29.404.245l.064-.014a.334.334 0 0 0 .248-.405l-.565-2.318 2.316.565a.334.334 0 0 0 .404-.245l.017-.064a.337.337 0 0 0-.245-.406l-2.267-.556ZM33.978 4.047l1.658-1.644a.335.335 0 0 0 0-.473l-.048-.047a.333.333 0 0 0-.473-.003l-1.66 1.646-.553-2.271a.336.336 0 0 0-.407-.245l-.065.016a.339.339 0 0 0-.249.405l.569 2.317-2.318-.565a.338.338 0 0 0-.407.246l-.014.064a.332.332 0 0 0 .246.405l2.265.554-1.655 1.642a.34.34 0 0 0-.003.475l.048.048a.336.336 0 0 0 .473.003l1.66-1.65.557 2.275c.043.179.226.29.404.245l.064-.014a.334.334 0 0 0 .248-.405l-.565-2.318 2.316.565a.334.334 0 0 0 .404-.245l.017-.064a.337.337 0 0 0-.245-.406l-2.267-.556ZM12.762 4.445l-1.39-.806a.473.473 0 0 1-.214-.555.305.305 0 0 1 .442-.171l1.505.888-.023-1.762a.272.272 0 0 1 .359-.258l.02.007a.509.509 0 0 1 .345.48l.007 1.57 1.346-.778a.342.342 0 0 1 .47.12.342.342 0 0 1-.131.467l-1.342.774 1.352.798a.5.5 0 0 1 .233.545.274.274 0 0 1-.4.176l-1.523-.883.008 1.778a.27.27 0 0 1-.339.26.46.46 0 0 1-.344-.439l-.022-1.637-1.354.781a.342.342 0 0 1-.469-.12.342.342 0 0 1 .131-.466l1.333-.77ZM25.762 4.445l-1.39-.806a.473.473 0 0 1-.214-.555.305.305 0 0 1 .442-.171l1.505.888-.023-1.762a.272.272 0 0 1 .359-.258l.02.007a.509.509 0 0 1 .345.48l.007 1.57 1.346-.778a.342.342 0 0 1 .47.12.342.342 0 0 1-.131.467l-1.342.774 1.352.798a.5.5 0 0 1 .233.545.274.274 0 0 1-.4.176l-1.523-.883.008 1.778a.27.27 0 0 1-.339.26.46.46 0 0 1-.344-.439l-.022-1.637-1.354.781a.342.342 0 0 1-.469-.12.342.342 0 0 1 .131-.466l1.333-.77ZM38.762 4.445l-1.39-.806a.473.473 0 0 1-.214-.555.305.305 0 0 1 .442-.171l1.505.888-.023-1.762a.272.272 0 0 1 .359-.258l.02.007a.509.509 0 0 1 .345.48l.007 1.57 1.346-.778a.342.342 0 0 1 .47.12.342.342 0 0 1-.131.467l-1.342.774 1.352.798a.5.5 0 0 1 .233.545.274.274 0 0 1-.4.176l-1.523-.883.008 1.778a.27.27 0 0 1-.339.26.46.46 0 0 1-.344-.439l-.022-1.637-1.354.781a.342.342 0 0 1-.469-.12.342.342 0 0 1 .131-.466l1.333-.77ZM15.762 12.445l-1.39-.806a.473.473 0 0 1-.214-.554.305.305 0 0 1 .442-.172l1.505.888-.023-1.762a.272.272 0 0 1 .359-.258l.02.007a.509.509 0 0 1 .345.48l.007 1.57 1.346-.778a.342.342 0 0 1 .47.12.342.342 0 0 1-.131.467l-1.342.774 1.352.798a.5.5 0 0 1 .233.545.274.274 0 0 1-.4.176l-1.523-.883.008 1.778a.27.27 0 0 1-.339.26.46.46 0 0 1-.344-.439l-.022-1.637-1.354.781a.342.342 0 0 1-.469-.12.342.342 0 0 1 .131-.466l1.333-.77ZM28.762 12.445l-1.39-.806a.473.473 0 0 1-.214-.554.305.305 0 0 1 .442-.172l1.505.888-.023-1.762a.272.272 0 0 1 .359-.258l.02.007a.509.509 0 0 1 .345.48l.007 1.57 1.346-.778a.342.342 0 0 1 .47.12.342.342 0 0 1-.131.467l-1.342.774 1.352.798a.5.5 0 0 1 .233.545.274.274 0 0 1-.4.176l-1.523-.883.008 1.778a.27.27 0 0 1-.339.26.46.46 0 0 1-.344-.439l-.022-1.637-1.354.781a.342.342 0 0 1-.469-.12.342.342 0 0 1 .131-.466l1.333-.77Z" fill="#0AF" />
    </g>
    </svg>